<svg xmlns="http://www.w3.org/2000/svg" width="23" height="23" fill="none" viewBox="0 0 23 23">
  <path fill="#46B8C8" fill-rule="evenodd" d="M2.556 23h17.888A2.556 2.556 0 0 0 23 20.444V2.556A2.556 2.556 0 0 0 20.444 0H2.556A2.556 2.556 0 0 0 0 2.556v17.888A2.556 2.556 0 0 0 2.556 23Zm17.25-3.194h-3.414v-5.814c0-1.594-.605-2.484-1.867-2.484-1.372 0-2.089.927-2.089 2.484v5.814h-3.29V8.73h3.29v1.492s.989-1.83 3.339-1.83c2.349 0 4.03 1.435 4.03 4.401v7.012ZM5.223 7.28a2.036 2.036 0 0 1-2.029-2.043c0-1.129.908-2.044 2.029-2.044 1.12 0 2.027.915 2.027 2.044A2.035 2.035 0 0 1 5.223 7.28ZM3.524 19.806h3.43V8.73h-3.43v11.075Z" clip-rule="evenodd"/>
</svg>
